<?xml version="1.0" encoding="UTF-8" standalone="no"?><!DOCTYPE svg PUBLIC "-//W3C//DTD SVG 1.1//EN" "http://www.w3.org/Graphics/SVG/1.1/DTD/svg11.dtd"><svg width="100%" height="100%" viewBox="0 0 200 200" version="1.1" xmlns="http://www.w3.org/2000/svg" xmlns:xlink="http://www.w3.org/1999/xlink" xml:space="preserve" xmlns:serif="http://www.serif.com/" style="fill-rule:evenodd;clip-rule:evenodd;stroke-linejoin:round;stroke-miterlimit:2;"><g><path d="M100,0c55.192,0 100,44.808 100,100c0,55.192 -44.808,100 -100,100c-55.192,0 -100,-44.808 -100,-100c0,-55.192 44.808,-100 100,-100Zm0,17c45.809,0 83,37.191 83,83c0,45.809 -37.191,83 -83,83c-45.809,0 -83,-37.191 -83,-83c0,-45.809 37.191,-83 83,-83Z" style="fill:#fff;"/><path id="Path_1" d="M47.835,108.259l85.415,-0l-24.955,25.505c-1.247,1.496 -1.931,3.394 -1.931,5.354c-0,4.548 3.684,8.29 8.161,8.29c1.93,-0 3.799,-0.696 5.272,-1.962l38.818,-39.609c3.14,-3.211 3.14,-8.471 -0,-11.682l-38.921,-39.601c-1.473,-1.266 -3.342,-1.962 -5.272,-1.962c-4.477,-0 -8.161,3.742 -8.161,8.29c-0,1.96 0.684,3.858 1.931,5.354l25.058,25.496l-85.415,-0c-0.214,-0.017 -0.429,-0.026 -0.643,-0.026c-4.478,-0 -8.162,3.742 -8.162,8.29c-0,4.547 3.684,8.289 8.162,8.289c0.214,-0 0.429,-0.009 0.643,-0.026Z" style="fill:#fff;fill-rule:nonzero;"/></g></svg>