<?xml version="1.0" encoding="UTF-8" standalone="no"?>
<!DOCTYPE svg PUBLIC "-//W3C//DTD SVG 1.1//EN" "http://www.w3.org/Graphics/SVG/1.1/DTD/svg11.dtd">
<svg width="100%" height="100%" viewBox="0 0 200 200" version="1.1" xmlns="http://www.w3.org/2000/svg" xmlns:xlink="http://www.w3.org/1999/xlink" xml:space="preserve" xmlns:serif="http://www.serif.com/" style="fill-rule:evenodd;clip-rule:evenodd;stroke-linejoin:round;stroke-miterlimit:2;">
    <path d="M100,0C155.192,0 200,44.808 200,100C200,155.192 155.192,200 100,200C44.808,200 0,155.192 0,100C0,44.808 44.808,0 100,0ZM100,17C145.809,17 183,54.191 183,100C183,145.809 145.809,183 100,183C54.191,183 17,145.809 17,100C17,54.191 54.191,17 100,17Z" style="fill:white;"/>
    <g transform="matrix(6.12323e-17,-1,1,6.12323e-17,27,245.221)">
        <g>
            <path d="M128,83.884L128,110L94,73L128,36L128,62.117L185.8,62.116L185.8,83.883L128,83.884Z" style="fill:white;"/>
            <g transform="matrix(6.28287e-17,1.02607,-1.02607,6.28287e-17,253.449,-29.3209)">
                <path d="M99.721,55.559C105.637,55.559 110.344,60.363 110.344,66.28C110.344,72.196 89.097,72.196 89.097,66.28C89.097,60.363 93.804,55.559 99.721,55.559Z" style="fill:white;"/>
            </g>
        </g>
    </g>
</svg>
