<?xml version="1.0" encoding="UTF-8" standalone="no"?><!DOCTYPE svg PUBLIC "-//W3C//DTD SVG 1.1//EN" "http://www.w3.org/Graphics/SVG/1.1/DTD/svg11.dtd"><svg width="100%" height="100%" viewBox="0 0 3475 3475" version="1.1" xmlns="http://www.w3.org/2000/svg" xmlns:xlink="http://www.w3.org/1999/xlink" xml:space="preserve" xmlns:serif="http://www.serif.com/" style="fill-rule:evenodd;clip-rule:evenodd;stroke-linejoin:round;stroke-miterlimit:2;"><g><path id="Path_1" d="M1553.95,179.533c-0,4.709 0.492,1826.98 0.492,1826.98l-561.021,-548.921c-32.905,-27.43 -74.652,-42.476 -117.767,-42.476c-100.04,0 -182.352,81.035 -182.352,179.518c-0,42.449 15.309,83.563 43.157,115.961l871.26,853.861c70.63,69.067 186.333,69.067 256.962,-0l871.081,-856.125c27.848,-32.398 43.157,-73.512 43.157,-115.967c0,-98.478 -82.312,-179.513 -182.352,-179.513c-43.11,0 -84.862,15.046 -117.767,42.476l-560.82,551.186c-0,-0 0.648,-1822.27 0.648,-1826.98c0,-98.498 -82.312,-179.533 -182.352,-179.533c-100.014,-0 -182.326,81.035 -182.326,179.533Z" style="fill:#fff;fill-rule:nonzero;"/><path id="Path_11" serif:id="Path_1" d="M3095.67,3475l-2719.12,0c-98.498,0 -179.533,-82.312 -179.533,-182.326c-0,-100.04 81.035,-182.352 179.533,-182.352l2719.12,-0c98.503,-0 179.538,82.312 179.538,182.352c0,100.014 -81.035,182.326 -179.538,182.326Z" style="fill:#fff;fill-rule:nonzero;"/></g></svg>