<?xml version="1.0" encoding="UTF-8" standalone="no"?><!DOCTYPE svg PUBLIC "-//W3C//DTD SVG 1.1//EN" "http://www.w3.org/Graphics/SVG/1.1/DTD/svg11.dtd"><svg width="100%" height="100%" viewBox="0 0 1112 1112" version="1.1" xmlns="http://www.w3.org/2000/svg" xmlns:xlink="http://www.w3.org/1999/xlink" xml:space="preserve" xmlns:serif="http://www.serif.com/" style="fill-rule:evenodd;clip-rule:evenodd;stroke-linejoin:round;stroke-miterlimit:2;"><path d="M1031.75,555.556c-62.831,-97.553 -147.413,-158.589 -236.235,-218.874c-119.358,-81.012 -360.553,-79.515 -479.911,-0c-89.339,59.516 -173.404,121.321 -236.235,218.874c54.977,84.738 123.905,152.219 206.783,202.443c82.879,50.223 172.681,75.334 269.408,75.334c96.726,0 186.528,-25.111 269.407,-75.334c82.878,-50.224 151.806,-117.705 206.783,-202.443Zm79.365,-0c0,14.054 -4.133,28.315 -12.401,42.782c-57.87,95.073 -135.685,171.235 -233.445,228.485c-97.759,57.25 -200.996,85.875 -309.709,85.875c-108.714,0 -211.951,-28.728 -309.71,-86.185c-97.76,-57.457 -175.575,-133.515 -233.445,-228.175c-8.267,-14.467 -12.401,-28.728 -12.401,-42.782c0,-14.055 4.134,-28.316 12.401,-42.783c57.87,-94.66 135.685,-170.718 233.445,-228.175c97.759,-57.457 200.996,-86.185 309.71,-86.185c108.713,-0 211.95,28.728 309.709,86.185c97.76,57.457 175.575,133.515 233.445,228.175c8.268,14.467 12.401,28.728 12.401,42.783Z" style="fill:#fff;fill-rule:nonzero;"/><path d="M555.556,237.302c119.581,-0 216.666,97.085 216.666,216.666c0,119.582 -97.085,216.667 -216.666,216.667c-119.582,-0 -216.667,-97.085 -216.667,-216.667c-0,-119.581 97.085,-216.666 216.667,-216.666Zm23.214,92.857c-0,-6.449 -2.257,-11.93 -6.771,-16.444c-4.514,-4.514 -9.995,-6.771 -16.443,-6.771c-40.303,0 -74.883,14.429 -103.739,43.285c-28.857,28.857 -43.285,63.437 -43.285,103.739c-0,6.449 2.257,11.93 6.771,16.444c4.513,4.514 9.995,6.771 16.443,6.771c6.448,-0 11.93,-2.257 16.443,-6.771c4.514,-4.514 6.771,-9.995 6.771,-16.444c0,-27.728 9.834,-51.426 29.502,-71.093c19.667,-19.668 43.365,-29.502 71.094,-29.502c6.448,0 11.929,-2.257 16.443,-6.771c4.514,-4.514 6.771,-9.995 6.771,-16.443Z" style="fill:#fff;"/></svg>