<?xml version="1.0" encoding="UTF-8" standalone="no"?><!DOCTYPE svg PUBLIC "-//W3C//DTD SVG 1.1//EN" "http://www.w3.org/Graphics/SVG/1.1/DTD/svg11.dtd"><svg width="100%" height="100%" viewBox="0 0 200 200" version="1.1" xmlns="http://www.w3.org/2000/svg" xmlns:xlink="http://www.w3.org/1999/xlink" xml:space="preserve" xmlns:serif="http://www.serif.com/" style="fill-rule:evenodd;clip-rule:evenodd;stroke-linejoin:round;stroke-miterlimit:2;"><g><path d="M100.001,0c55.191,0 99.999,44.808 99.999,100.001c0,55.191 -44.808,99.999 -99.999,99.999c-55.193,0 -100.001,-44.808 -100.001,-99.999c0,-55.193 44.808,-100.001 100.001,-100.001Zm-0,17c45.808,0 82.999,37.191 82.999,83.001c-0,45.808 -37.191,82.999 -82.999,82.999c-45.81,-0 -83.001,-37.191 -83.001,-82.999c0,-45.81 37.191,-83.001 83.001,-83.001Z" style="fill:#fff;"/><g><path d="M111.541,91.962l-0,46.82c-0,4.445 -0.988,7.738 -3.128,10.043c-2.14,2.139 -4.775,3.292 -7.901,3.292c-3.294,-0 -5.928,-1.153 -7.903,-3.457c-1.976,-2.305 -2.964,-5.597 -2.964,-9.879l0,-46.16c0,-4.446 0.988,-7.573 2.964,-9.879c1.975,-2.139 4.609,-3.292 7.903,-3.292c3.126,-0 5.761,1.153 7.901,3.292c2.14,2.306 3.128,5.269 3.128,9.22Z" style="fill:#fff;fill-rule:nonzero;"/><circle cx="100.594" cy="60.017" r="10.948" style="fill:#fff;"/></g></g></svg>