<?xml version="1.0" encoding="UTF-8" standalone="no"?><!DOCTYPE svg PUBLIC "-//W3C//DTD SVG 1.1//EN" "http://www.w3.org/Graphics/SVG/1.1/DTD/svg11.dtd"><svg width="100%" height="100%" viewBox="0 0 200 200" version="1.1" xmlns="http://www.w3.org/2000/svg" xmlns:xlink="http://www.w3.org/1999/xlink" xml:space="preserve" xmlns:serif="http://www.serif.com/" style="fill-rule:evenodd;clip-rule:evenodd;stroke-linejoin:round;stroke-miterlimit:2;"><g><path d="M107.407,14.815c51.104,-0 92.593,41.489 92.593,92.592c-0,51.104 -41.489,92.593 -92.593,92.593c-51.103,0 -92.592,-41.489 -92.592,-92.593c-0,-51.103 41.489,-92.592 92.592,-92.592Zm0,15.741c42.416,-0 76.852,34.436 76.852,76.851c0,42.416 -34.436,76.852 -76.852,76.852c-42.415,0 -76.851,-34.436 -76.851,-76.852c-0,-42.415 34.436,-76.851 76.851,-76.851Z" style="fill:#5e5e5e;"/><g><path d="M117.485,99.463l0,43.097c0,4.091 -0.909,7.121 -2.879,9.244c-1.97,1.969 -4.395,3.03 -7.274,3.03c-3.031,0 -5.455,-1.061 -7.274,-3.182c-1.818,-2.121 -2.727,-5.152 -2.727,-9.093l-0,-42.49c-0,-4.091 0.909,-6.97 2.727,-9.092c1.819,-1.97 4.243,-3.031 7.274,-3.031c2.879,0 5.304,1.061 7.274,3.031c1.97,2.122 2.879,4.85 2.879,8.486Z" style="fill:#5e5e5e;fill-rule:nonzero;"/><circle cx="107.408" cy="70.058" r="10.077" style="fill:#5e5e5e;"/></g></g><g><path d="M92.593,0c51.103,0 92.592,41.489 92.592,92.593c0,51.103 -41.489,92.592 -92.592,92.592c-51.104,0 -92.593,-41.489 -92.593,-92.592c0,-51.104 41.489,-92.593 92.593,-92.593Zm-0,15.741c42.415,-0 76.851,34.436 76.851,76.852c0,42.415 -34.436,76.851 -76.851,76.851c-42.416,0 -76.852,-34.436 -76.852,-76.851c-0,-42.416 34.436,-76.852 76.852,-76.852Z" style="fill:#fff;"/><g><path d="M102.67,84.648l0,43.097c0,4.091 -0.909,7.122 -2.879,9.244c-1.97,1.969 -4.395,3.03 -7.273,3.03c-3.032,0 -5.456,-1.061 -7.274,-3.182c-1.819,-2.121 -2.728,-5.152 -2.728,-9.093l-0,-42.489c-0,-4.092 0.909,-6.971 2.728,-9.093c1.818,-1.969 4.242,-3.031 7.274,-3.031c2.878,0 5.303,1.062 7.273,3.031c1.97,2.122 2.879,4.85 2.879,8.486Z" style="fill:#fff;fill-rule:nonzero;"/><circle cx="92.594" cy="55.244" r="10.077" style="fill:#fff;"/></g></g></svg>