<svg viewBox="0 0 133 132" xmlns="http://www.w3.org/2000/svg" fill-rule="evenodd" clip-rule="evenodd" stroke-linejoin="round" stroke-miterlimit="2"><path d="M65.03 0C37.888 0 29.95.028 28.407.156c-5.57.463-9.036 1.34-12.812 3.22-2.91 1.445-5.205 3.12-7.47 5.468C4 13.126 1.5 18.394.595 24.656c-.44 3.04-.568 3.66-.594 19.188-.01 5.176 0 11.988 0 21.125 0 27.12.03 35.05.16 36.59.45 5.42 1.3 8.83 3.1 12.56 3.44 7.14 10.01 12.5 17.75 14.5 2.68.69 5.64 1.07 9.44 1.25 1.61.07 18.02.12 34.44.12 16.42 0 32.84-.02 34.41-.1 4.4-.207 6.955-.55 9.78-1.28a27.234 27.234 0 0017.75-14.53c1.765-3.64 2.66-7.18 3.065-12.317.088-1.12.125-18.977.125-36.81 0-17.836-.04-35.66-.128-36.78-.41-5.22-1.305-8.73-3.127-12.44-1.495-3.037-3.155-5.305-5.565-7.624C116.9 4 111.64 1.5 105.372.596 102.335.157 101.73.027 86.19 0H65.03z" fill="url(#_Radial1)" fill-rule="nonzero" transform="translate(.025 .021) scale(1.01506)"/><path d="M65.03 0C37.888 0 29.95.028 28.407.156c-5.57.463-9.036 1.34-12.812 3.22-2.91 1.445-5.205 3.12-7.47 5.468C4 13.126 1.5 18.394.595 24.656c-.44 3.04-.568 3.66-.594 19.188-.01 5.176 0 11.988 0 21.125 0 27.12.03 35.05.16 36.59.45 5.42 1.3 8.83 3.1 12.56 3.44 7.14 10.01 12.5 17.75 14.5 2.68.69 5.64 1.07 9.44 1.25 1.61.07 18.02.12 34.44.12 16.42 0 32.84-.02 34.41-.1 4.4-.207 6.955-.55 9.78-1.28a27.234 27.234 0 0017.75-14.53c1.765-3.64 2.66-7.18 3.065-12.317.088-1.12.125-18.977.125-36.81 0-17.836-.04-35.66-.128-36.78-.41-5.22-1.305-8.73-3.127-12.44-1.495-3.037-3.155-5.305-5.565-7.624C116.9 4 111.64 1.5 105.372.596 102.335.157 101.73.027 86.19 0H65.03z" fill="url(#_Radial2)" fill-rule="nonzero" transform="translate(.025 .021) scale(1.01506)"/><path d="M66.004 17.277c-13.232 0-14.893.058-20.09.295-5.187.237-8.728 1.058-11.826 2.263-3.204 1.245-5.922 2.91-8.63 5.619-2.71 2.708-4.376 5.426-5.624 8.63-1.208 3.099-2.03 6.64-2.264 11.825-.232 5.197-.293 6.859-.293 20.091 0 13.232.059 14.888.294 20.085.239 5.187 1.06 8.728 2.264 11.826 1.245 3.204 2.91 5.922 5.62 8.63 2.707 2.71 5.425 4.38 8.627 5.624 3.1 1.205 6.642 2.026 11.828 2.264 5.197.236 6.857.294 20.088.294 13.233 0 14.889-.058 20.086-.294 5.187-.238 8.731-1.059 11.831-2.264 3.204-1.244 5.918-2.913 8.625-5.623 2.71-2.709 4.375-5.427 5.624-8.63 1.198-3.1 2.02-6.64 2.263-11.826.234-5.197.295-6.854.295-20.086s-.061-14.893-.295-20.09c-.243-5.187-1.065-8.727-2.263-11.825-1.249-3.205-2.913-5.923-5.624-8.631-2.71-2.71-5.42-4.375-8.628-5.619-3.106-1.205-6.648-2.026-11.835-2.263-5.197-.237-6.852-.295-20.088-.295h.015zm-4.37 8.78c1.296-.001 2.744 0 4.37 0 13.009 0 14.55.047 19.688.28 4.75.218 7.329 1.012 9.046 1.679 2.274.883 3.895 1.938 5.6 3.644 1.705 1.705 2.76 3.33 3.645 5.603.667 1.715 1.462 4.294 1.678 9.044.234 5.136.285 6.68.285 19.682 0 13.003-.051 14.546-.285 19.682-.217 4.75-1.01 7.329-1.678 9.044-.883 2.274-1.94 3.893-3.646 5.597-1.705 1.706-3.324 2.761-5.599 3.644-1.715.67-4.295 1.462-9.046 1.68-5.136.233-6.679.283-19.688.283-13.01 0-14.552-.05-19.688-.284-4.75-.219-7.329-1.013-9.047-1.68-2.274-.883-3.898-1.938-5.604-3.644-1.705-1.705-2.76-3.325-3.646-5.6-.667-1.715-1.461-4.294-1.678-9.044-.233-5.136-.28-6.68-.28-19.69 0-13.011.047-14.546.28-19.682.218-4.75 1.011-7.329 1.678-9.046.883-2.274 1.941-3.898 3.646-5.604 1.706-1.705 3.33-2.76 5.604-3.646 1.717-.67 4.296-1.461 9.047-1.68 4.495-.203 6.236-.263 15.317-.274v.013zm30.378 8.09c-3.208 0-5.847 2.64-5.847 5.847 0 3.208 2.64 5.847 5.847 5.847 3.207 0 5.847-2.64 5.847-5.847v-.002a5.848 5.848 0 00-5.847-5.846v.002zM66.004 40.98c-13.818 0-25.021 11.203-25.021 25.021 0 13.818 11.203 25.016 25.021 25.016 13.818 0 25.017-11.198 25.017-25.016 0-13.818-11.2-25.021-25.018-25.021h.001zm0 8.78c8.969 0 16.24 7.271 16.24 16.241 0 8.97-7.271 16.241-16.24 16.241-8.97 0-16.241-7.272-16.241-16.24 0-8.97 7.27-16.242 16.241-16.242z" fill="#fff" fill-rule="nonzero"/><defs><radialGradient id="_Radial1" cx="0" cy="0" r="1" gradientUnits="userSpaceOnUse" gradientTransform="scale(119.854 128.829) rotate(-90 .687 .4)"><stop offset="0" stop-color="#fd5"/><stop offset=".1" stop-color="#fd5"/><stop offset=".5" stop-color="#ff543e"/><stop offset="1" stop-color="#c837ab"/></radialGradient><radialGradient id="_Radial2" cx="0" cy="0" r="1" gradientUnits="userSpaceOnUse" gradientTransform="matrix(11.3061 56.4668 -232.817 46.6167 -21.783 9.364)"><stop offset="0" stop-color="#3771c8"/><stop offset=".13" stop-color="#3771c8"/><stop offset="1" stop-color="#60f" stop-opacity="0"/></radialGradient></defs></svg>