<?xml version="1.0" encoding="UTF-8" standalone="no"?><!DOCTYPE svg PUBLIC "-//W3C//DTD SVG 1.1//EN" "http://www.w3.org/Graphics/SVG/1.1/DTD/svg11.dtd"><svg width="100%" height="100%" viewBox="0 0 417 417" version="1.1" xmlns="http://www.w3.org/2000/svg" xmlns:xlink="http://www.w3.org/1999/xlink" xml:space="preserve" xmlns:serif="http://www.serif.com/" style="fill-rule:evenodd;clip-rule:evenodd;stroke-linejoin:round;stroke-miterlimit:2;"><g><path d="M319.439,-97.227l-416.666,416.666l16.474,16.474l416.666,-416.666l-16.474,-16.474Z" style="fill:#e80c00;"/><path d="M335.59,-81.076l-416.666,416.666l16.473,16.474l416.667,-416.667l-16.474,-16.473Z" style="fill:#f49200;"/><path d="M351.741,-64.926l-416.667,416.667l16.474,16.474l416.667,-416.667l-16.474,-16.474Z" style="fill:#fff000;"/><path d="M367.892,-48.775l-416.667,416.667l16.474,16.473l416.666,-416.666l-16.473,-16.474Z" style="fill:#008b3a;"/><path d="M384.042,-32.624l-416.666,416.666l16.473,16.474l416.667,-416.667l-16.474,-16.473Z" style="fill:#305fae;"/><path d="M400.193,-16.474l-416.667,416.667l16.474,16.474l416.667,-416.667l-16.474,-16.474Z" style="fill:#78248c;"/></g></svg>