<svg viewBox="0 0 133 132" xmlns="http://www.w3.org/2000/svg" fill-rule="evenodd" clip-rule="evenodd" stroke-linejoin="round" stroke-miterlimit="2"><g transform="matrix(.16406 0 0 .16366 -.705 -.54)"><circle cx="406.6" cy="405.6" r="402.3" fill="#ff4500"/><path d="M674.9 405.6c-1.2-32.4-28.4-57.7-60.9-56.6-14.4.5-28.1 6.4-38.5 16.3-45.8-31.2-99.6-48.3-154.9-49.5l26.1-125.5 86.1 18.1c2.4 22.1 22.2 38.1 44.3 35.7 22.1-2.4 38.1-22.2 35.7-44.3-2.4-22.1-22.2-38.1-44.3-35.7-12.7 1.3-24.1 8.7-30.4 19.7l-98.6-19.7c-6.7-1.5-13.4 2.7-14.9 9.5v.2l-29.7 139.6c-56 .9-110.5 18.1-156.9 49.5-23.6-22.2-60.8-21.1-83 2.6-22.2 23.6-21.1 60.8 2.6 83 4.6 4.3 9.9 8 15.8 10.6-.4 5.9-.4 11.8 0 17.7 0 90.1 105 163.4 234.5 163.4S642.4 567 642.4 476.8c.4-5.9.4-11.8 0-17.7 20.2-10.1 32.9-30.9 32.5-53.5zm-402.3 40.3c0-22.2 18.1-40.3 40.3-40.3 22.2 0 40.3 18.1 40.3 40.3 0 22.2-18.1 40.3-40.3 40.3-22.3-.2-40.3-18.1-40.3-40.3zm233.7 112.2c-28.6 21.5-63.6 30.9-99.4 29.4-35.8 1.5-70.8-9.5-99.4-31-3.8-4.6-3.1-11.5 1.5-15.3 4-3.3 9.7-3.3 13.8 0 24.2 17.7 53.7 26.7 83.7 25.3 30 1.6 59.6-7 84.1-24.5 4.4-4.3 11.6-4.2 15.9.2 4.3 4.4 4.2 11.6-.2 15.9zm-7.5-69c-22.2 0-40-19.6-40-41.8 0-22.2 18.1-40.3 40.3-40.3 22.2 0 40.3 18.1 40.3 40.3.9 22.2-16.4 40.9-38.6 41.8h-2z" fill="#fff" fill-rule="nonzero"/></g></svg>