<svg viewBox="0 0 250 250" xmlns="http://www.w3.org/2000/svg" fill-rule="evenodd" clip-rule="evenodd" stroke-linejoin="round" stroke-miterlimit="2"><circle cx="1250" cy="1250" r="1250" fill="#2daae1" transform="scale(.1)"/><path d="M205.148 75.2772c-5.896 2.6163-12.229 4.3849-18.887 5.1799 6.796-4.0692 12.001-10.5174 14.459-18.1918a65.691 65.691 0 01-20.886 7.98c-5.996-6.3905-14.545-10.3803-24.003-10.3803-18.155 0-32.879 14.7178-32.879 32.8833 0 2.5739.29 5.0849.847 7.4957-27.3296-1.3735-51.5592-14.4647-67.7774-34.3569-2.8319 4.8582-4.4528 10.5068-4.4528 16.5335 0 11.4071 5.806 21.4714 14.6281 27.3674a32.7445 32.7445 0 01-14.8968-4.111v.415c0 15.934 11.3332 29.22 26.3773 32.242-2.7636.757-5.6638 1.152-8.6642 1.152-2.1214 0-4.1796-.2-6.1902-.578 4.1846 13.059 16.329 22.566 30.7144 22.834-11.2543 8.822-25.4351 14.081-40.8371 14.081-2.6528 0-5.2746-.158-7.8484-.468 14.5547 9.333 31.8361 14.781 50.407 14.781 60.4821 0 93.5601-50.107 93.5601-93.5604 0-1.4266-.031-2.8426-.1-4.2534a66.9933 66.9933 0 0016.429-17.045z" fill="#fff" fill-rule="nonzero"/></svg>