<?xml version="1.0" encoding="UTF-8" standalone="no"?><!DOCTYPE svg PUBLIC "-//W3C//DTD SVG 1.1//EN" "http://www.w3.org/Graphics/SVG/1.1/DTD/svg11.dtd"><svg width="100%" height="100%" viewBox="0 0 695 695" version="1.1" xmlns="http://www.w3.org/2000/svg" xmlns:xlink="http://www.w3.org/1999/xlink" xml:space="preserve" xmlns:serif="http://www.serif.com/" style="fill-rule:evenodd;clip-rule:evenodd;stroke-linecap:round;stroke-linejoin:round;stroke-miterlimit:1.5;"><g id="Custom-Trees" serif:id="Custom Trees"><path d="M507.26,659.016l-284.87,-0c61.527,-0.666 99.674,-4.738 99.674,-93.321c-21.514,-23.008 -20.306,-23.586 -36.798,-58.62c-17.406,-13.309 -22.475,-60.625 -15.393,-79.116c-7.047,18.622 -2.143,65.633 15.382,79.102c-26.921,37.81 -99.024,28.719 -106.624,-12.888c-49.409,25.951 -90.198,-29.352 -59.351,-67.267c-66.794,5.649 -81.496,-125.899 8.169,-131.846c-69.536,1.699 -104.711,-92.244 -20.601,-113.06c-10.906,-57.41 45.974,-93.823 94.665,-58.852c-8.615,-37.9 36.148,-73.773 75.703,-60.07c46.417,-51.84 103.536,-23.427 116.94,21.173c31.49,-0.792 51.743,14.444 62.717,41.144c53.983,-43.715 129.488,18.602 84.504,79.734c32.728,-0.167 52.331,16.539 59.209,49.608c48.96,15.52 54.23,79.776 2.86,92.386c41.638,17.863 28.121,77.701 -19.894,65.932c34.658,52.044 -38.435,97.366 -69.748,35.678c-49.571,34.302 -93.36,-32.723 -61.967,-70.542c-35.416,12.384 -65.557,-8.86 -46.848,-46.151c-10.939,13.675 -24.473,23.828 -40.007,31.266c-5.303,65.567 2.565,122.01 47.515,152.76l0.075,10.704c-17.137,26.672 -7.661,59.614 3.187,75.585c17.285,59.708 22.308,57.299 91.501,56.661Z" style="fill:none;stroke:#fff;stroke-width:55.56px;"/></g></svg>