<?xml version="1.0" encoding="UTF-8" standalone="no"?><!DOCTYPE svg PUBLIC "-//W3C//DTD SVG 1.1//EN" "http://www.w3.org/Graphics/SVG/1.1/DTD/svg11.dtd"><svg width="100%" height="100%" viewBox="0 0 695 695" version="1.1" xmlns="http://www.w3.org/2000/svg" xmlns:xlink="http://www.w3.org/1999/xlink" xml:space="preserve" xmlns:serif="http://www.serif.com/" style="fill-rule:evenodd;clip-rule:evenodd;stroke-linecap:round;stroke-linejoin:round;"><g id="Vanilla-Minecraft" serif:id="Vanilla Minecraft"><path d="M614.626,192.845l-267.404,154.684l-267.404,-154.684c-5.68,9.382 -8.826,20.278 -8.842,31.601l-0,245.552c0.031,21.885 11.756,42.174 30.694,53.101l214.858,122.776c18.969,10.958 42.419,10.958 61.388,0l214.858,-122.776c18.939,-10.927 30.664,-31.216 30.694,-53.101l0,-245.552c-0.015,-11.323 -3.162,-22.219 -8.842,-31.601Z" style="fill:none;stroke:#fff;stroke-width:60.49px;"/><path d="M614.626,192.845c-5.239,-8.637 -12.826,-16.292 -21.852,-21.5l-214.858,-122.776c-18.969,-10.957 -42.419,-10.957 -61.388,0l-214.858,122.776c-9.026,5.208 -16.613,12.863 -21.852,21.5" style="fill:none;stroke:#fff;stroke-width:60.49px;"/></g></svg>