<?xml version="1.0" encoding="UTF-8" standalone="no"?><!DOCTYPE svg PUBLIC "-//W3C//DTD SVG 1.1//EN" "http://www.w3.org/Graphics/SVG/1.1/DTD/svg11.dtd"><svg width="100%" height="100%" viewBox="0 0 695 695" version="1.1" xmlns="http://www.w3.org/2000/svg" xmlns:xlink="http://www.w3.org/1999/xlink" xml:space="preserve" xmlns:serif="http://www.serif.com/" style="fill-rule:evenodd;clip-rule:evenodd;stroke-linejoin:round;stroke-miterlimit:2;"><g id="Krenia"><path d="M277.778,320.492l-0,-25.353c-38.357,-0 -69.445,-31.101 -69.445,-69.445l0,-138.888c0,-38.358 31.088,-69.445 69.445,-69.445l69.444,0c38.385,0 69.445,31.087 69.445,69.445l69.444,-0c0,-38.358 31.101,-69.445 69.445,-69.445l69.444,0c38.384,0 69.444,31.087 69.444,69.445l0,138.888c0,38.358 -31.06,69.445 -69.444,69.445l0,381.944l-625,0l0,-228.831c0,-38.344 31.087,-69.445 69.444,-69.445l-17.611,2.253l225.945,-60.568Zm69.444,-25.353l0,312.5l208.334,-0l-0,-312.5l-208.334,-0Zm-277.423,152.973l-0.002,-0.007l-0.353,0.141l0,159.393l208.334,-0l-0,-215.254l-207.979,55.727Zm207.979,-361.306l-0,138.888l347.222,0l0,-138.888l-69.444,-0l-0,69.444l-208.334,-0l0,-69.444l-69.444,-0Z" style="fill:#fff;fill-rule:nonzero;"/></g></svg>