<?xml version="1.0" encoding="UTF-8" standalone="no"?><!DOCTYPE svg PUBLIC "-//W3C//DTD SVG 1.1//EN" "http://www.w3.org/Graphics/SVG/1.1/DTD/svg11.dtd"><svg width="100%" height="100%" viewBox="0 0 192 192" version="1.1" xmlns="http://www.w3.org/2000/svg" xmlns:xlink="http://www.w3.org/1999/xlink" xml:space="preserve" xmlns:serif="http://www.serif.com/" style="fill-rule:evenodd;clip-rule:evenodd;stroke-linejoin:round;stroke-miterlimit:2;"><path d="M187.988,49.487c-2.208,-8.315 -8.713,-14.863 -16.976,-17.085c-14.971,-4.038 -75.012,-4.038 -75.012,-4.038c0,-0 -60.04,-0 -75.013,4.038c-8.261,2.222 -14.768,8.77 -16.976,17.085c-4.011,15.07 -4.011,46.513 -4.011,46.513c0,0 0,31.442 4.011,46.514c2.208,8.314 8.715,14.862 16.976,17.085c14.973,4.037 75.013,4.037 75.013,4.037c0,0 60.041,0 75.012,-4.037c8.263,-2.223 14.768,-8.771 16.976,-17.085c4.012,-15.072 4.012,-46.514 4.012,-46.514c0,0 0,-31.443 -4.012,-46.513" style="fill:#70bbf2;fill-rule:nonzero;"/><clipPath id="_clip1"><path d="M187.988,49.487c-2.208,-8.315 -8.713,-14.863 -16.976,-17.085c-14.971,-4.038 -75.012,-4.038 -75.012,-4.038c0,-0 -60.04,-0 -75.013,4.038c-8.261,2.222 -14.768,8.77 -16.976,17.085c-4.011,15.07 -4.011,46.513 -4.011,46.513c0,-0 0,31.442 4.011,46.514c2.208,8.314 8.715,14.862 16.976,17.085c14.973,4.037 75.013,4.037 75.013,4.037c0,0 60.041,0 75.012,-4.037c8.263,-2.223 14.768,-8.771 16.976,-17.085c4.012,-15.072 4.012,-46.514 4.012,-46.514c0,0 0,-31.443 -4.012,-46.513" clip-rule="nonzero"/></clipPath><g clip-path="url(#_clip1)"><ellipse cx="96" cy="121.811" rx="96" ry="70.175" style="fill:#abd4f2;"/></g><g><clipPath id="_clip2"><path d="M187.988,49.487c-2.208,-8.315 -8.713,-14.863 -16.976,-17.085c-14.971,-4.038 -75.012,-4.038 -75.012,-4.038c0,-0 -60.04,-0 -75.013,4.038c-8.261,2.222 -14.768,8.77 -16.976,17.085c-4.011,15.07 -4.011,46.513 -4.011,46.513c0,0 0,31.442 4.011,46.514c2.208,8.314 8.715,14.862 16.976,17.085c14.973,4.037 75.013,4.037 75.013,4.037c0,0 60.041,0 75.012,-4.037c8.263,-2.223 14.768,-8.771 16.976,-17.085c4.012,-15.072 4.012,-46.514 4.012,-46.514c0,0 0,-31.443 -4.012,-46.513" clip-rule="nonzero"/></clipPath><g clip-path="url(#_clip2)"><path d="M142,155.364l33.5,-42l31,26l-20,24.636l-44.5,-8.636Z" style="fill:#52a658;"/><g><path d="M92,122l33,-31l67,66l-67,17l-33,-52Z" style="fill:#6cb204;"/><path d="M136.674,102.5l-23.916,0l12.242,-11.5l11.674,11.5Z" style="fill:#fff;"/></g><g><path d="M25.602,118.228l41.586,-40.228l83.211,85.636l-80.211,7.364l-44.586,-52.772Z" style="fill:#91c648;"/><path d="M84.494,96l-35.914,0l18.608,-18l17.306,18Z" style="fill:#fff;"/></g><path d="M-5.173,137.423l28.173,-31.059l55,64.636l-80,0l-3.173,-33.577Z" style="fill:#b1d076;"/></g></g></svg>