<?xml version="1.0" encoding="UTF-8" standalone="no"?><!DOCTYPE svg PUBLIC "-//W3C//DTD SVG 1.1//EN" "http://www.w3.org/Graphics/SVG/1.1/DTD/svg11.dtd"><svg width="100%" height="100%" viewBox="0 0 695 695" version="1.1" xmlns="http://www.w3.org/2000/svg" xmlns:xlink="http://www.w3.org/1999/xlink" xml:space="preserve" xmlns:serif="http://www.serif.com/" style="fill-rule:evenodd;clip-rule:evenodd;stroke-linecap:round;stroke-linejoin:round;stroke-miterlimit:1.5;"><g id="Raft-Story" serif:id="Raft Story"><path d="M657.573,463.921c0,-23.224 -18.854,-42.078 -42.077,-42.078l-536.547,0c-23.223,0 -42.078,18.854 -42.078,42.078c0,23.223 18.855,42.077 42.078,42.077l536.547,0c23.223,0 42.077,-18.854 42.077,-42.077Z" style="fill:none;stroke:#fff;stroke-width:53.97px;"/><path d="M195.813,529.437c7.52,11.271 11.903,24.806 11.903,39.357c0,39.21 -31.833,71.043 -71.043,71.043c-39.21,0 -71.044,-31.833 -71.044,-71.043c0,-14.551 4.384,-28.086 11.904,-39.357m265.651,-0c7.52,11.271 11.903,24.806 11.903,39.357c0,39.21 -31.833,71.043 -71.043,71.043c-39.21,0 -71.044,-31.833 -71.044,-71.043c-0,-14.551 4.385,-28.086 11.903,-39.357m402.434,-0.033c7.532,11.274 11.926,24.823 11.926,39.39c-0,39.21 -31.834,71.043 -71.044,71.043c-39.21,0 -71.044,-31.833 -71.044,-71.043c0,-14.551 4.384,-28.086 11.903,-39.357m-23.806,-0c7.519,11.271 11.903,24.806 11.903,39.357c0,39.21 -31.833,71.043 -71.043,71.043c-39.211,0 -71.045,-31.833 -71.045,-71.043c0,-14.551 4.385,-28.086 11.904,-39.357" style="fill:none;stroke:#fff;stroke-width:53.97px;"/><path d="M352.446,54.607l-0,367.233" style="fill:none;stroke:#fff;stroke-width:53.97px;"/><path d="M546.91,105.849c-94.777,-0 -99.688,-29.115 -194.464,-29.115l-0,96.831c89.424,0 105.04,29.115 194.464,29.115l-0,-96.831Z" style="fill:none;stroke:#fff;stroke-width:53.97px;"/></g></svg>