<?xml version="1.0" encoding="UTF-8" standalone="no"?><!DOCTYPE svg PUBLIC "-//W3C//DTD SVG 1.1//EN" "http://www.w3.org/Graphics/SVG/1.1/DTD/svg11.dtd"><svg width="100%" height="100%" viewBox="0 0 695 695" version="1.1" xmlns="http://www.w3.org/2000/svg" xmlns:xlink="http://www.w3.org/1999/xlink" xml:space="preserve" xmlns:serif="http://www.serif.com/" style="fill-rule:evenodd;clip-rule:evenodd;stroke-linecap:round;stroke-linejoin:round;"><g id="Marcel-Mas" serif:id="Marcel Mas"><path d="M596.189,347.222l0,311.209l-497.934,0l0,-311.209" style="fill:none;fill-rule:nonzero;stroke:#fff;stroke-width:55.56px;"/><rect x="36.013" y="191.618" width="622.418" height="155.604" style="fill:none;stroke:#fff;stroke-width:55.56px;"/><path d="M347.222,658.431l0,-311.209" style="fill:none;fill-rule:nonzero;stroke:#fff;stroke-width:55.56px;"/><path d="M347.222,191.618l-140.044,-0c-42.666,-0 -77.802,-35.136 -77.802,-77.802c0,-42.667 35.136,-77.803 77.802,-77.803c108.923,0 140.044,155.605 140.044,155.605Z" style="fill:none;fill-rule:nonzero;stroke:#fff;stroke-width:55.56px;"/><path d="M347.222,191.618l140.044,-0c42.667,-0 77.802,-35.136 77.802,-77.802c0,-42.667 -35.135,-77.803 -77.802,-77.803c-108.923,0 -140.044,155.605 -140.044,155.605Z" style="fill:none;fill-rule:nonzero;stroke:#fff;stroke-width:55.56px;"/></g></svg>