<?xml version="1.0" encoding="UTF-8" standalone="no"?><!DOCTYPE svg PUBLIC "-//W3C//DTD SVG 1.1//EN" "http://www.w3.org/Graphics/SVG/1.1/DTD/svg11.dtd"><svg width="100%" height="100%" viewBox="0 0 960 540" version="1.1" xmlns="http://www.w3.org/2000/svg" xmlns:xlink="http://www.w3.org/1999/xlink" xml:space="preserve" xmlns:serif="http://www.serif.com/" style="fill-rule:evenodd;clip-rule:evenodd;stroke-linejoin:round;stroke-miterlimit:2;"><path d="M440,52.92l-372.998,0c-11.046,0 -20,8.954 -20,20l0,234c0,11.046 8.954,20 20,20l139.499,0l0,45.32l-54.283,0c-10.201,0 -18.5,8.299 -18.5,18.5c0,10.201 8.299,18.5 18.5,18.5l202.566,0c10.201,0 18.5,-8.299 18.5,-18.5c0,-10.201 -8.299,-18.5 -18.5,-18.5l-54.283,0l0,-45.32l139.499,0c11.046,0 20,-8.954 20,-20l0,-234c0,-11.046 -8.954,-20 -20,-20Zm-10,244l-352.998,0l0,-214l352.998,0l0,214Z" style="fill:#fff;fill-rule:nonzero;"/><path d="M892.998,52.92l-372.998,0c-11.046,0 -20,8.954 -20,20l0,234c0,11.046 8.954,20 20,20l139.499,0l0,45.32l-54.283,0c-10.201,0 -18.5,8.299 -18.5,18.5c-0,10.201 8.299,18.5 18.5,18.5l202.566,0c10.201,0 18.5,-8.299 18.5,-18.5c-0,-10.201 -8.299,-18.5 -18.5,-18.5l-54.283,0l0,-45.32l139.499,0c11.046,0 20,-8.954 20,-20l0,-234c0,-11.046 -8.954,-20 -20,-20Zm-10,244l-352.998,0l0,-214l352.998,0l0,214Z" style="fill:#fff;fill-rule:nonzero;"/><text x="297.996px" y="489.85px" style="font-family:'Arial-BoldMT', 'Arial', sans-serif;font-weight:700;font-size:72px;fill:#fff;">2 Monitors</text></svg>