<svg viewBox="0 0 192 192" xmlns="http://www.w3.org/2000/svg" fill-rule="evenodd" clip-rule="evenodd" stroke-linejoin="round" stroke-miterlimit="2"><path d="M187.9878 49.487c-2.208-8.315-8.7131-14.8626-16.9756-17.0848C156.0405 28.3637 96 28.3637 96 28.3637s-60.0404 0-75.0132 4.0385C12.7255 34.6244 6.2193 41.172 4.0113 49.487 0 64.5568 0 96 0 96s0 31.4423 4.0113 46.5143c2.208 8.3138 8.7142 14.8615 16.9756 17.0848 14.9728 4.0374 75.0132 4.0374 75.0132 4.0374s60.0404 0 75.012-4.0374c8.2626-2.2233 14.7677-8.771 16.9757-17.0848 4.0124-15.072 4.0124-46.5142 4.0124-46.5142s0-31.4433-4.0124-46.5131" fill="red" fill-rule="nonzero"/><path d="M76.3637 124.5481l50.1819-28.548L76.3637 67.451v57.0971z" fill="#fff" fill-rule="nonzero"/></svg>